<svg height="319.765539" viewBox="0 0 400 409.04761905" width="312.729134" xmlns="http://www.w3.org/2000/svg"><path d="m185.2 2.779c-1.792.424-6.462 2.321-11.6 4.713-4.73 2.203-9.5 4.409-10.6 4.904-2.919 1.314-9.942 4.519-13.4 6.116-3.555 1.642-15.823 7.273-19.8 9.088-1.54.703-5.86 2.683-9.6 4.4s-7.97 3.659-9.4 4.314c-1.43.656-3.95 1.823-5.6 2.593-1.65.769-3.9 1.804-5 2.299s-4.52 2.061-7.6 3.481c-3.08 1.419-6.818 3.141-8.306 3.826-3.253 1.498-3.217 1.565 2.106 3.894 2.09.914 5.06 2.259 6.6 2.989 1.54.729 3.79 1.773 5 2.319s3.46 1.569 5 2.274c15.976 7.311 22.31 10.213 24 10.997 1.1.511 3.17 1.472 4.6 2.136 6.574 3.052 8.828 4.078 8.959 4.078.078 0 2.189.969 4.691 2.154 3.934 1.863 15.14 7.022 20.75 9.554.99.446 3.662 1.685 5.938 2.752 2.275 1.067 4.193 1.94 4.26 1.94.131 0 3.528 1.556 13.268 6.077 7.334 3.403 8.734 4.602 8.734 7.476 0 2.689-1.342 4.313-5.062 6.125-12.478 6.079-32.12 14.763-32.932 14.559-.504-.126-2.692-1.057-4.861-2.068-2.17-1.01-4.485-2.078-5.145-2.372-1.796-.801-24.746-11.296-28.2-12.896-1.65-.764-3.72-1.717-4.6-2.116-.88-.4-3.04-1.391-4.8-2.203-3.405-1.571-6.74-3.095-10-4.569-1.1-.498-3.44-1.58-5.2-2.405-4.673-2.192-20.611-9.47-22.651-10.344-1.713-.735-9.194-4.149-14.349-6.55-5.322-2.479-13.464-6.237-15.4-7.108-1.1-.495-3.17-1.425-4.6-2.067-1.43-.641-2.913-1.34-3.295-1.552-.382-.213-.877-.387-1.1-.387-.27 0-.405 10.756-.405 32.334v32.334l5.1 2.311c8.782 3.981 12.154 5.521 17.1 7.811 3.654 1.692 6.754 3.115 17 7.806 12.439 5.694 14.414 6.659 14.225 6.955-.192.301-1.946 1.202-5.425 2.785-6.292 2.865-10.995 5.034-17 7.844-3.343 1.564-7.556 3.509-17.64 8.143-5.302 2.436-10.477 4.836-11.5 5.333l-1.86.903v32.364c0 25.732.102 32.321.5 32.159.706-.286 9.877-4.49 13.7-6.278 3.348-1.567 5.332-2.475 9-4.12 1.21-.542 3.37-1.531 4.8-2.196 3.098-1.443 31.904-14.638 34.2-15.667 2.218-.994 24.93-11.413 28.6-13.121 1.65-.768 3.9-1.806 5-2.306 1.1-.501 8.126-3.724 15.614-7.163l13.614-6.254 5.786 2.635c3.182 1.449 6.686 3.056 7.786 3.571 2.967 1.391 7.268 3.356 14.121 6.452 8.319 3.758 10.706 6.001 9.886 9.286-.76 3.046-1.573 3.553-16.807 10.473-3.52 1.6-7.57 3.449-9 4.111-1.43.661-3.77 1.733-5.2 2.38-1.43.648-3.68 1.698-5 2.334-1.32.635-3.48 1.628-4.8 2.206-2.379 1.041-13.197 5.962-18.2 8.279-1.43.662-3.5 1.613-4.6 2.114-2.267 1.031-6.756 3.099-10.6 4.882-1.43.664-6.65 3.051-11.6 5.304-4.95 2.254-10.08 4.598-11.4 5.209s-3.57 1.652-5 2.314c-1.43.661-3.86 1.773-5.4 2.469-10.102 4.57-9.751 4.273-6.676 5.639 2.895 1.286 5.172 2.329 8.876 4.063 5.009 2.346 7.268 3.384 17.2 7.905 4.95 2.253 10.44 4.771 12.2 5.597 1.76.825 4.1 1.899 5.2 2.386s3.08 1.393 4.4 2.014 3.3 1.527 4.4 2.014 3.44 1.56 5.2 2.385c1.76.824 6.44 2.983 10.4 4.798 8.294 3.802 9.299 4.264 20 9.201 1.54.711 3.79 1.739 5 2.286 1.21.546 3.1 1.401 4.2 1.901 5.369 2.437 12.994 2.468 18.245.074 5.086-2.319 20.787-9.49 23.355-10.668 3.383-1.551 6.187-2.826 8.6-3.911.99-.445 3.42-1.561 5.4-2.48s4.41-2.036 5.4-2.482c.99-.445 3.24-1.485 5-2.31 3.113-1.458 8.729-4.021 13.6-6.205 2.312-1.037 4.226-1.919 9.8-4.518 1.43-.666 3.68-1.695 5-2.286 1.32-.59 7.89-3.593 14.6-6.672 11.558-5.304 13.22-6.062 17.3-7.888.935-.419 3.41-1.562 5.5-2.541 2.09-.978 7.85-3.624 12.8-5.879 13.412-6.111 16.949-7.742 22.049-10.168 1.677-.798 3.186-1.451 3.352-1.451 1.225 0 8.341-4.538 10.484-6.685 5.1-5.112 5.505-12.474 1.016-18.458-1.848-2.464-6.594-5.016-25.716-13.827-10.442-4.811-20.294-9.351-21.894-10.089-1.6-.737-2.972-1.341-3.05-1.341s-2.189-.963-4.691-2.139c-5.61-2.637-7.113-3.331-16.15-7.458-3.96-1.808-9.062-4.168-11.338-5.245-2.275-1.077-4.225-1.958-4.331-1.958s-1.574-.651-3.262-1.446c-5.095-2.4-7.767-3.637-9.869-4.569-1.1-.488-5.69-2.586-10.2-4.663s-9.01-4.148-10-4.603-2.88-1.328-4.2-1.939-3.165-1.431-4.1-1.823c-2.203-.921-2.151-1.127.6-2.386 1.265-.578 4.28-1.956 6.7-3.062s5.57-2.548 7-3.206c1.43-.657 3.59-1.644 4.8-2.192 2.63-1.191 6.51-2.979 9.8-4.516 1.32-.617 3.48-1.605 4.8-2.197 4.723-2.116 16.474-7.517 20.538-9.44 2.275-1.077 4.233-1.958 4.351-1.958.117 0 1.495-.614 3.062-1.365s3.839-1.811 5.049-2.354c1.21-.544 3.37-1.527 4.8-2.184 3.376-1.553 10.745-4.919 13.8-6.304 1.32-.599 3.75-1.718 5.4-2.486 1.65-.769 3.36-1.537 3.8-1.708 1.233-.477 20.698-9.437 25.206-11.601 9.024-4.334 11.999-8.006 11.988-14.798-.014-8.183-3.411-11.446-19.594-18.822-1.54-.702-3.79-1.727-5-2.279s-5.71-2.619-10-4.594-11.67-5.353-16.4-7.507c-4.73-2.153-9.77-4.451-11.2-5.106s-4.67-2.135-7.2-3.288c-2.53-1.154-6.103-2.796-7.94-3.651-1.837-.854-3.408-1.553-3.493-1.553-.084 0-1.911-.83-4.06-1.845-5.709-2.697-8.457-3.973-10.707-4.971-1.1-.487-5.42-2.458-9.6-4.379-7.182-3.301-17.893-8.205-23.2-10.623-1.32-.601-4.082-1.878-6.137-2.838-2.055-.959-3.794-1.744-3.863-1.744s-1.808-.785-3.863-1.745-4.637-2.154-5.737-2.654-5.51-2.523-9.8-4.496c-13.398-6.163-15.744-6.7-22.4-5.126m-149.6 378.81v25.267l26.3-.158c19.482-.117 26.715-.287 27.9-.656.88-.274 2.524-.758 3.653-1.076 8.361-2.351 12.004-11.421 7.248-18.044-1.185-1.65-5.684-4.915-6.791-4.928-1.88-.023-1.477-.801.996-1.922 10.742-4.871 10.445-17.417-.506-21.367-5.693-2.054-5.311-2.028-32.9-2.211l-25.9-.171zm95.52-24.489c-.333.385-2.371 3.67-4.53 7.3s-4.699 7.86-5.644 9.4c-.946 1.54-2.454 4.06-3.353 5.6-.898 1.54-1.939 3.29-2.313 3.889-3.413 5.467-13.68 22.822-13.68 23.124 0 .238 3.528.387 9.166.387h9.166l1.974-3.5c1.085-1.925 2.651-4.67 3.48-6.1.83-1.43 2.004-3.5 2.61-4.6s2.854-5.06 4.995-8.8c3.967-6.927 5.668-9.947 7.209-12.8.475-.88 1.12-1.645 1.432-1.7.47-.083 10.368 16.791 10.368 17.676 0 .123-2.763.224-6.14.224-6.177 0-8.179.325-9.604 1.557-.76.657-3.456 4.532-3.456 4.967 0 .132-.45.904-1 1.714-.55.811-1 1.629-1 1.818s6.111.344 13.581.344h13.581l1.152 1.7c.634.935 1.85 3.005 2.703 4.6l1.551 2.9h9.316c5.124 0 9.316-.111 9.316-.247 0-.231-5.004-8.64-6.994-11.753-.728-1.139-14.173-23.453-15.611-25.909-.222-.38-1.19-2.041-2.149-3.691s-2.545-4.305-3.523-5.9l-1.78-2.9h-10.109c-9.132 0-10.168.068-10.714.7m87.28 16.607c0 24.622 2.017 22.443-20.929 22.606-8.761.063-15.87.243-15.798.4 1.707 3.73 5.137 8.505 6.727 9.364 2.009 1.085 33.898.892 36.748-.222 2.823-1.105 3.768-1.699 5.281-3.322 3.738-4.012 3.771-4.245 3.771-26.933v-19l-7.9-.108-7.9-.109zm44.565-17.001c-.355.241-5.229 8.06-8.161 13.094-.561.962-3.062 5.15-5.615 9.4-.198.33-3.002 5.01-6.23 10.4s-6.835 11.389-8.014 13.332c-1.18 1.943-2.145 3.611-2.145 3.708 0 .096 4.17.126 9.267.067l9.266-.107 1.462-2.4c.804-1.32 2.104-3.57 2.888-5s3.741-6.655 6.571-11.61c2.83-4.956 6.316-11.12 7.746-13.698 2.916-5.257 3.2-5.405 4.79-2.492.6 1.1 1.776 3.17 2.613 4.6s2.006 3.5 2.598 4.6c.591 1.1 1.551 2.81 2.132 3.8 1.68 2.86 1.783 2.8-4.833 2.802-6.83.003-8.277.307-9.972 2.094-1.318 1.389-4.928 7.16-4.928 7.876 0 .295 4.124.43 13.3.434 7.315.003 13.486.138 13.713.3.46.327 2.206 3.094 4.161 6.594l1.285 2.3h9.17c10.099 0 9.9.059 8.2-2.443-.534-.785-1.321-2.042-1.749-2.793-.428-.75-4.51-7.574-9.071-15.164s-8.638-14.398-9.06-15.129c-.423-.731-1.086-1.811-1.474-2.4-.389-.589-.915-1.431-1.168-1.871-2.415-4.191-5.549-9.334-6.033-9.9-.631-.738-19.664-1.1-20.709-.394m86.902-.039c-.147.146-.267 8.111-.268 17.7 0 24.114 2.218 21.748-20.661 22.033l-16.063.2 2.387 3.8c4.366 6.949 2.707 6.496 23.138 6.312 19.149-.174 20.631-.477 24.36-4.984 2.724-3.293 2.84-4.352 2.84-25.97v-19.358h-7.733c-4.254 0-7.854.12-8 .267m-268.898 10.516c4.481 1.039 5.48 4.859 1.831 6.997-1.296.759-2.234.835-12.6 1.02-13.079.234-12.286-.015-15.123 4.753-3.651 6.139-3.448 6.361-3.464-3.786-.007-4.859.107-8.954.254-9.1.406-.407 27.311-.299 29.102.116m1.946 19.725c2.527 1.927 2.818 5.343.633 7.406-1.973 1.862-3.04 2.023-13.661 2.056-12.396.038-11.787-.172-15.083 5.192-1.366 2.222-2.645 4.14-2.843 4.262-.211.131-.361-4.033-.361-10.014v-10.238l14.932.114 14.931.114z" fill="#041c4a" fill-rule="evenodd"/></svg>